<?xml version="1.0" encoding="UTF-8"?>
<svg width="479px" height="24px" viewBox="0 0 479 24" version="1.1" xmlns="http://www.w3.org/2000/svg" xmlns:xlink="http://www.w3.org/1999/xlink">
    <!-- Generator: Sketch 44.1 (41455) - http://www.bohemiancoding.com/sketch -->
    <title>Group 3 Copy</title>
    <desc>Created with Sketch.</desc>
    <defs></defs>
    <g id="Page-1" stroke="none" stroke-width="1" fill="none" fill-rule="evenodd">
        <g id="homepage-form-open" transform="translate(-361.000000, -5455.000000)" fill="#FC5A5D">
            <g id="Group-3-Copy" transform="translate(361.000000, 5455.000000)">
                <rect id="Rectangle-12" transform="translate(12.000000, 12.000000) rotate(-45.000000) translate(-12.000000, -12.000000) " x="-2" y="10" width="28" height="4"></rect>
                <rect id="Rectangle-12-Copy-10" transform="translate(251.000000, 12.000000) rotate(-45.000000) translate(-251.000000, -12.000000) " x="237" y="10" width="28" height="4"></rect>
                <rect id="Rectangle-12-Copy" transform="translate(36.000000, 12.000000) rotate(-45.000000) translate(-36.000000, -12.000000) " x="22" y="10" width="28" height="4"></rect>
                <rect id="Rectangle-12-Copy-11" transform="translate(275.000000, 12.000000) rotate(-45.000000) translate(-275.000000, -12.000000) " x="261" y="10" width="28" height="4"></rect>
                <rect id="Rectangle-12-Copy-2" transform="translate(60.000000, 12.000000) rotate(-45.000000) translate(-60.000000, -12.000000) " x="46" y="10" width="28" height="4"></rect>
                <rect id="Rectangle-12-Copy-12" transform="translate(299.000000, 12.000000) rotate(-45.000000) translate(-299.000000, -12.000000) " x="285" y="10" width="28" height="4"></rect>
                <rect id="Rectangle-12-Copy-3" transform="translate(84.000000, 12.000000) rotate(-45.000000) translate(-84.000000, -12.000000) " x="70" y="10" width="28" height="4"></rect>
                <rect id="Rectangle-12-Copy-13" transform="translate(323.000000, 12.000000) rotate(-45.000000) translate(-323.000000, -12.000000) " x="309" y="10" width="28" height="4"></rect>
                <rect id="Rectangle-12-Copy-4" transform="translate(107.000000, 12.000000) rotate(-45.000000) translate(-107.000000, -12.000000) " x="93" y="10" width="28" height="4"></rect>
                <rect id="Rectangle-12-Copy-14" transform="translate(347.000000, 12.000000) rotate(-45.000000) translate(-347.000000, -12.000000) " x="333" y="10" width="28" height="4"></rect>
                <rect id="Rectangle-12-Copy-5" transform="translate(131.000000, 12.000000) rotate(-45.000000) translate(-131.000000, -12.000000) " x="117" y="10" width="28" height="4"></rect>
                <rect id="Rectangle-12-Copy-15" transform="translate(371.000000, 12.000000) rotate(-45.000000) translate(-371.000000, -12.000000) " x="357" y="10" width="28" height="4"></rect>
                <rect id="Rectangle-12-Copy-6" transform="translate(155.000000, 12.000000) rotate(-45.000000) translate(-155.000000, -12.000000) " x="141" y="10" width="28" height="4"></rect>
                <rect id="Rectangle-12-Copy-16" transform="translate(395.000000, 12.000000) rotate(-45.000000) translate(-395.000000, -12.000000) " x="381" y="10" width="28" height="4"></rect>
                <rect id="Rectangle-12-Copy-7" transform="translate(179.000000, 12.000000) rotate(-45.000000) translate(-179.000000, -12.000000) " x="165" y="10" width="28" height="4"></rect>
                <rect id="Rectangle-12-Copy-17" transform="translate(419.000000, 12.000000) rotate(-45.000000) translate(-419.000000, -12.000000) " x="405" y="10" width="28" height="4"></rect>
                <rect id="Rectangle-12-Copy-8" transform="translate(203.000000, 12.000000) rotate(-45.000000) translate(-203.000000, -12.000000) " x="189" y="10" width="28" height="4"></rect>
                <rect id="Rectangle-12-Copy-18" transform="translate(443.000000, 12.000000) rotate(-45.000000) translate(-443.000000, -12.000000) " x="429" y="10" width="28" height="4"></rect>
                <rect id="Rectangle-12-Copy-9" transform="translate(227.000000, 12.000000) rotate(-45.000000) translate(-227.000000, -12.000000) " x="213" y="10" width="28" height="4"></rect>
                <rect id="Rectangle-12-Copy-19" transform="translate(467.000000, 12.000000) rotate(-45.000000) translate(-467.000000, -12.000000) " x="453" y="10" width="28" height="4"></rect>
            </g>
        </g>
    </g>
</svg>