<?xml version="1.0" encoding="UTF-8"?>
<svg width="94px" height="83px" viewBox="0 0 94 83" version="1.1" xmlns="http://www.w3.org/2000/svg" xmlns:xlink="http://www.w3.org/1999/xlink">
    <!-- Generator: Sketch 44.1 (41455) - http://www.bohemiancoding.com/sketch -->
    <title>Test_icon</title>
    <desc>Created with Sketch.</desc>
    <defs></defs>
    <g id="Page-1" stroke="none" stroke-width="1" fill="none" fill-rule="evenodd">
        <g id="tools-page" transform="translate(-709.000000, -1019.000000)">
            <g id="Test_icon" transform="translate(710.000000, 1020.000000)">
                <g id="Group-9">
                    <g id="Page-1-Copy-5" stroke="#1D3EFB" stroke-width="3">
                        <path d="M72.6424897,65.1583012 C69.885725,65.9517694 66.9268868,66.379227 63.8502838,66.379227 C52.4752838,66.379227 42.7436368,60.5137069 38.7717544,52.2170215" id="Stroke-1" stroke-linecap="square"></path>
                        <path d="M29.1733956,46.0891493 C21.9536162,48.9664734 20.3704838,57.4595221 20.3704838,57.4595221 C17.032925,52.6145571 13.4397632,47.9365677 10.0553662,43.1223262 C4.12832206,34.6840454 -2.55081029,25.6112573 2.38995441,15.0076365 C6.49699853,6.19800201 16.2206162,1.27823189 25.6243956,0.723872775 C26.2654103,0.685134428 26.9104397,0.667768962 27.5527926,0.667768962 C42.4593956,0.667768962 54.5396456,10.7343961 54.5396456,23.153376 C54.5396456,26.2764882 53.8317191,29.3969289 52.4693956,32.2087986 C51.2301897,34.7735444 49.3593368,37.3984014 46.6346897,38.5378431 C45.5226162,39.0040391 44.2098074,39.0975454 43.1231603,38.5752457 C41.8451456,37.9594395 41.0555868,36.5608516 40.9351456,35.1475698 C40.8173809,33.7356238 41.2964691,32.3236779 42.0258074,31.1080952 C42.4527044,30.3961111 42.9665868,29.7415666 43.5072338,29.1124024 C48.3222044,23.5193865 56.6928662,21.1443251 63.8497485,21.1443251 C73.2802926,21.1443251 83.2099985,25.4122224 88.1106162,33.7716906 C90.9262632,38.5699024 91.6542632,44.4795041 89.514425,49.5983092 C86.5475574,56.7021207 74.7911603,72.4793145 71.0293809,77.9374141 C71.0293809,77.9374141 69.4462485,69.4416938 62.2264691,66.5643696" id="Stroke-3" stroke-linecap="round"></path>
                        <path d="M18.8596162,44.6854853 C21.6177191,45.4762819 24.5752191,45.9037395 27.6518221,45.9037395 C29.9602779,45.9037395 32.1978074,45.6632946 34.3349691,45.2104567" id="Stroke-5" stroke-linejoin="round"></path>
                    </g>
                    <path d="M24.9261545,26.2302946 C24.9261545,25.7145011 24.939236,25.2772046 24.9653994,24.9183917 C24.9915629,24.5595789 25.0532329,24.2362784 25.1504114,23.9484806 C25.2475898,23.6606828 25.3933554,23.3953148 25.5877123,23.1523686 C25.7820693,22.9094224 26.0549124,22.6496608 26.40625,22.3730759 C26.6604091,22.1413426 26.9145644,21.8965313 27.1687235,21.6386346 C27.4228826,21.3807378 27.6527436,21.1153698 27.8583134,20.8425226 C28.0638833,20.5696753 28.2302055,20.2912258 28.357285,20.0071656 C28.4843646,19.7231054 28.5479034,19.4390495 28.5479034,19.1549894 C28.5479034,18.4747401 28.3647621,17.9776422 27.998474,17.663681 C27.6321859,17.3497198 27.0977123,17.1927415 26.3950372,17.1927415 C26.1259275,17.1927415 25.8642971,17.2282485 25.610138,17.2992635 C25.3559789,17.3702786 25.1298555,17.4842747 24.9317609,17.6412553 C24.7336663,17.7982359 24.5729505,18.0000651 24.4496085,18.2467489 C24.3262666,18.4934328 24.260859,18.7887014 24.2533838,19.1325637 L21.125,19.1325637 C21.1324753,18.3700864 21.2745032,17.7066664 21.5510881,17.1422837 C21.827673,16.577901 22.2014308,16.108835 22.6723726,15.7350717 C23.1433145,15.3613083 23.6964759,15.0828588 24.3318737,14.8997147 C24.9672714,14.7165707 25.6549857,14.625 26.3950372,14.625 C27.2247918,14.625 27.9685698,14.7184394 28.6263933,14.9053211 C29.2842168,15.0922028 29.8392471,15.3706523 30.2915008,15.7406781 C30.7437545,16.1107038 31.0894804,16.5685571 31.328689,17.1142516 C31.5678975,17.6599461 31.6875,18.2915967 31.6875,19.0092224 C31.6875,19.5399664 31.5977981,20.0239827 31.4183917,20.4612858 C31.2389853,20.898589 31.0072555,21.3059849 30.7231953,21.6834859 C30.4391352,22.0609869 30.1158347,22.4197944 29.7532842,22.7599191 C29.3907338,23.1000437 29.0263199,23.4308193 28.6600318,23.7522558 C28.4357738,23.9765139 28.2601077,24.1746055 28.1330281,24.3465366 C28.0059486,24.5184678 27.9143779,24.6941339 27.8583134,24.8735403 C27.8022489,25.0529468 27.7667419,25.2491696 27.7517914,25.4622147 C27.7368409,25.6752598 27.7293657,25.9312839 27.7293657,26.2302946 L24.9261545,26.2302946 Z M24.4664278,29.6277866 C24.4664278,29.3811028 24.5075412,29.1512418 24.5897691,28.9381967 C24.671997,28.7251515 24.7915995,28.5401414 24.9485801,28.3831608 C25.1055608,28.2261802 25.2961772,28.1047089 25.5204352,28.0187434 C25.7446933,27.9327778 25.9988485,27.8897956 26.2829087,27.8897956 C26.5594936,27.8897956 26.8117801,27.9327778 27.0397757,28.0187434 C27.2677714,28.1047089 27.4602566,28.2261802 27.6172373,28.3831608 C27.7742179,28.5401414 27.8956891,28.7251515 27.9816547,28.9381967 C28.0676203,29.1512418 28.1106024,29.3811028 28.1106024,29.6277866 C28.1106024,29.8669952 28.0676203,30.0912498 27.9816547,30.3005573 C27.8956891,30.5098648 27.7742179,30.6892685 27.6172373,30.8387739 C27.4602566,30.9882792 27.2677714,31.1060129 27.0397757,31.1919785 C26.8117801,31.2779441 26.5594936,31.3209262 26.2829087,31.3209262 C25.9988485,31.3209262 25.7446933,31.2779441 25.5204352,31.1919785 C25.2961772,31.1060129 25.1055608,30.9882792 24.9485801,30.8387739 C24.7915995,30.6892685 24.671997,30.5098648 24.5897691,30.3005573 C24.5075412,30.0912498 24.4664278,29.8669952 24.4664278,29.6277866 Z" id="?-copy-4" fill="#1D3EFB"></path>
                    <g id="Group-17-Copy" transform="translate(55.250000, 43.062500)" fill="#1D3EFB">
                        <path d="M0,1.73799098 C0,1.49130715 0.0411133539,1.26144613 0.123341295,1.04840101 C0.205569236,0.835355888 0.32517172,0.650345796 0.482152335,0.49336518 C0.639132951,0.336384565 0.82974941,0.214913293 1.05400743,0.128947718 C1.27826545,0.0429821427 1.53242073,0 1.81648089,0 C2.09306578,0 2.34535227,0.0429821427 2.57334793,0.128947718 C2.80134359,0.214913293 2.99382883,0.336384565 3.15080945,0.49336518 C3.30779006,0.650345796 3.42926134,0.835355888 3.51522691,1.04840101 C3.60119249,1.26144613 3.64417463,1.49130715 3.64417463,1.73799098 C3.64417463,1.97719953 3.60119249,2.20145419 3.51522691,2.41076168 C3.42926134,2.62006916 3.30779006,2.79947289 3.15080945,2.94897824 C2.99382883,3.09848359 2.80134359,3.21621728 2.57334793,3.30218286 C2.34535227,3.38814843 2.09306578,3.43113057 1.81648089,3.43113057 C1.53242073,3.43113057 1.27826545,3.38814843 1.05400743,3.30218286 C0.82974941,3.21621728 0.639132951,3.09848359 0.482152335,2.94897824 C0.32517172,2.79947289 0.205569236,2.62006916 0.123341295,2.41076168 C0.0411133539,2.20145419 0,1.97719953 0,1.73799098 Z" id="?-copy"></path>
                        <path d="M6.5,1.73799098 C6.5,1.49130715 6.54111335,1.26144613 6.6233413,1.04840101 C6.70556924,0.835355888 6.82517172,0.650345796 6.98215234,0.49336518 C7.13913295,0.336384565 7.32974941,0.214913293 7.55400743,0.128947718 C7.77826545,0.0429821427 8.03242073,0 8.31648089,0 C8.59306578,0 8.84535227,0.0429821427 9.07334793,0.128947718 C9.30134359,0.214913293 9.49382883,0.336384565 9.65080945,0.49336518 C9.80779006,0.650345796 9.92926134,0.835355888 10.0152269,1.04840101 C10.1011925,1.26144613 10.1441746,1.49130715 10.1441746,1.73799098 C10.1441746,1.97719953 10.1011925,2.20145419 10.0152269,2.41076168 C9.92926134,2.62006916 9.80779006,2.79947289 9.65080945,2.94897824 C9.49382883,3.09848359 9.30134359,3.21621728 9.07334793,3.30218286 C8.84535227,3.38814843 8.59306578,3.43113057 8.31648089,3.43113057 C8.03242073,3.43113057 7.77826545,3.38814843 7.55400743,3.30218286 C7.32974941,3.21621728 7.13913295,3.09848359 6.98215234,2.94897824 C6.82517172,2.79947289 6.70556924,2.62006916 6.6233413,2.41076168 C6.54111335,2.20145419 6.5,1.97719953 6.5,1.73799098 Z" id="?-copy-2"></path>
                        <path d="M13,1.73799098 C13,1.49130715 13.0411134,1.26144613 13.1233413,1.04840101 C13.2055692,0.835355888 13.3251717,0.650345796 13.4821523,0.49336518 C13.639133,0.336384565 13.8297494,0.214913293 14.0540074,0.128947718 C14.2782655,0.0429821427 14.5324207,0 14.8164809,0 C15.0930658,0 15.3453523,0.0429821427 15.5733479,0.128947718 C15.8013436,0.214913293 15.9938288,0.336384565 16.1508094,0.49336518 C16.3077901,0.650345796 16.4292613,0.835355888 16.5152269,1.04840101 C16.6011925,1.26144613 16.6441746,1.49130715 16.6441746,1.73799098 C16.6441746,1.97719953 16.6011925,2.20145419 16.5152269,2.41076168 C16.4292613,2.62006916 16.3077901,2.79947289 16.1508094,2.94897824 C15.9938288,3.09848359 15.8013436,3.21621728 15.5733479,3.30218286 C15.3453523,3.38814843 15.0930658,3.43113057 14.8164809,3.43113057 C14.5324207,3.43113057 14.2782655,3.38814843 14.0540074,3.30218286 C13.8297494,3.21621728 13.639133,3.09848359 13.4821523,2.94897824 C13.3251717,2.79947289 13.2055692,2.62006916 13.1233413,2.41076168 C13.0411134,2.20145419 13,1.97719953 13,1.73799098 Z" id="?-copy-3"></path>
                    </g>
                </g>
            </g>
        </g>
    </g>
</svg>