<?xml version="1.0" encoding="UTF-8"?>
<svg width="62px" height="83px" viewBox="0 0 62 83" version="1.1" xmlns="http://www.w3.org/2000/svg" xmlns:xlink="http://www.w3.org/1999/xlink">
    <!-- Generator: Sketch 44.1 (41455) - http://www.bohemiancoding.com/sketch -->
    <title>understand icon</title>
    <desc>Created with Sketch.</desc>
    <defs></defs>
    <g id="Page-1" stroke="none" stroke-width="1" fill="none" fill-rule="evenodd">
        <g id="tools-page" transform="translate(-118.000000, -1003.000000)">
            <g id="understand-icon" transform="translate(118.000000, 1003.000000)">
                <g>
                    <path d="M40.7670038,83 C40.7670038,83 38.1100886,76.2396064 40.1009782,66.3317004 C41.6853845,66.7509371 42.8497314,66.8496762 47.9056166,66.7857386 C53.3615963,66.7169449 57.2707035,65.4640909 56.8266864,61.8115522 C56.6222469,60.1224654 55.9218818,57.2825012 56.6150596,55.6743482 C57.236364,54.2248253 59.0475704,53.5174646 56.9432808,51.8146191 C58.1020376,50.9057334 59.3214874,49.5638523 59.3214874,49.5638523 C59.3214874,49.5638523 57.6620135,46.3645424 57.9119728,45.7065513 C58.5668181,43.9664763 62.012742,44.8405605 61.9999646,41.5619355 C61.9919786,39.086173 58.6546632,36.4736325 57.4631641,34.4656669 C56.2037847,32.3427755 55.9594156,31.122295 56.6078722,28.8585788 C58.3264419,22.8613902 57.4040683,15.3135115 54.4756319,11.306483 C50.100147,5.31819709 45.2638747,2.2483811 29.482102,0.304353146 C4.91022866,-2.72256797 -1.15587522,17.5416168 0.171384478,29.4388736 C1.36927229,40.1723035 9.32244876,49.2684443 11.5521173,53.1216987 C13.7817858,56.9749531 10.3574238,70.8494207 8.63326398,75.0466434" id="Stroke-5" fill="#1D3EFB"></path>
                    <g id="Group-9-Copy-6" transform="translate(4.000000, 6.000000)" fill="#FFFFFF">
                        <path d="M43.6657729,8.36317528 C46.7212931,9.05343241 49,11.690611 49,14.8438311 C49,16.2581977 48.5393317,17.566879 47.7592338,18.6451993 C47.9300342,19.2586695 48.0261094,19.9026893 48.0261094,20.5714791 C48.0261094,24.4446803 44.9689469,27.5846898 41.197379,27.5846898 C40.8048666,27.5846898 40.4213869,27.5434065 40.0469399,27.4781788 C39.1058956,29.9279311 36.6243632,31.6832979 33.7010491,31.6832979 C33.2847232,31.6832979 32.8798934,31.6420146 32.4849175,31.57431 C31.0355778,33.8060863 28.4341567,35.2988912 25.455004,35.2988912 C24.4704384,35.2988912 23.5302152,35.1279783 22.6556844,34.8299127 C22.210618,35.3798066 21.7630882,35.9751121 21.3311603,36.6183062 C18.8832953,40.2611465 18.2083054,42 18.2083054,42 L15.8088886,41.9834867 C15.8088886,41.9834867 16.0174621,39.5841 15.953412,37.6371786 C15.046035,37.5083746 14.2166678,37.1434301 13.5293605,36.6034442 C13.1450597,36.6628922 12.7525473,36.7025242 12.3510021,36.7025242 C9.22486258,36.7025242 6.55939134,34.8216561 5.48367744,32.1720925 C2.25817804,30.6858929 0,27.2560745 0,23.2606747 C0,20.4690965 1.10773897,17.9615475 2.869939,16.1913187 C2.78207535,15.7553668 2.73034254,15.3053786 2.73034254,14.8446568 C2.73034254,11.767398 4.79801247,9.14838405 7.69997654,8.11630101 C8.41602427,4.98454824 11.3073133,2.61488559 14.8226807,2.44314697 C15.8327021,0.980066053 17.6515619,0 19.7323703,0 C20.8581747,0 21.904327,0.290634584 22.7919962,0.783557443 C23.6780232,0.290634584 24.7249966,0 25.8499799,0 C27.5522356,0 29.0771216,0.657230479 30.1306643,1.69674452 C30.609398,1.56298655 31.1176934,1.48950224 31.6465176,1.48950224 C33.8151897,1.48950224 35.6553995,2.70818589 36.3459914,4.40905874 C37.0677872,3.98714319 37.9029025,3.74026893 38.7979622,3.74026893 C41.3985621,3.74026893 43.5179649,5.78627035 43.6657729,8.36317528 Z M11.0545609,14 C11.0458339,14.048455 11.0356912,14.1204234 11.0265034,14.2139735 C10.9051293,15.4498094 11.1851373,16.9095488 12.1888301,18.2964532 C12.5529655,18.7996162 13.0001784,19.2657902 13.5347202,19.6881524 C16.2948658,21.8693948 19.0617192,22.2534525 22.2634268,20.496366 C25.6211271,18.6550483 28.2853683,18.9971815 30.3767379,20.6565408 C30.7593139,20.9600888 31.0878688,21.2851033 31.3606403,21.6080667 C31.5189662,21.7955256 31.6196743,21.93428 31.6615189,22 L33,21.0304671 C32.7059602,20.5686563 32.1558037,19.9172672 31.342425,19.2719066 C28.7735627,17.2336893 25.4522865,16.8071818 21.5234018,18.9617295 C18.898251,20.4024034 16.7851926,20.1090968 14.4978704,18.3015095 C14.0823236,17.9731699 13.7421671,17.6185912 13.4696123,17.2419745 C13.0604561,16.6766017 12.8143024,16.0789712 12.6977872,15.4715531 C12.6176538,15.0538011 12.6072077,14.6834453 12.6356578,14.3937658 C12.6399204,14.3503633 12.6432281,14.3268934 12.6434681,14.3255611 L11.0545609,14 Z M17.580611,9.98912217 C17.572711,8.77829779 18.700581,7.45218624 20.3767119,6.88671807 C21.7694083,6.41647273 23.1857164,6.59415422 24.0260103,7.26942915 L25,5.99093525 C23.7177626,4.96050678 21.75122,4.71379617 19.8832731,5.34451037 C17.6035152,6.11362117 15.9871206,8.01412371 16.0000773,10 L17.580611,9.98912217 Z M6.16602651,23.7443663 C7.9674542,23.5616597 9.54746177,24.8260153 9.71318082,26.5461508 C9.71961292,26.6137052 9.70429471,26.8769941 9.66046045,27.4306204 C9.60190796,28.1701378 9.58871518,28.3968951 9.61027927,28.623357 C9.8693554,31.3114759 12.2909616,33.2489734 15,32.9740085 L14.8338506,31.2556382 C13.0338815,31.4383334 11.4532748,30.1737093 11.2875972,28.4546779 C11.2811683,28.3871565 11.2964865,28.1238676 11.3403208,27.5702412 C11.3988733,26.8307239 11.4120661,26.6039666 11.390502,26.3775047 C11.1314279,23.6883548 8.71049876,21.751076 6,22.0259835 L6.16602651,23.7443663 Z M35.8908134,10.0774266 C36.1443325,9.90830441 36.4294292,9.79218062 36.7346045,9.73689469 C37.956893,9.51541482 39.1144878,10.3428676 39.3233152,11.5774932 C39.4146132,12.1177796 39.3132023,12.6600153 39.0437299,13.1240532 L40.452841,14 C40.9238973,13.1888295 41.1027897,12.2323067 40.9426186,11.2844411 C40.5762898,9.11863831 38.5622733,7.67901222 36.4510474,8.0615684 C35.9285046,8.15623291 35.4371016,8.35638803 35,8.64797785 L35.8908134,10.0774266 Z M27.7580571,28 C27.1479743,28.7715126 26.0647616,29.2663196 24.8594647,29.2663196 C23.7663776,29.2663196 22.770168,28.8600498 22.1347776,28.1985934 L21,29.4394666 C21.9483014,30.4266709 23.3541554,31 24.8594647,31 C26.5267123,31 28.0687672,30.2955958 29,29.1179559 L27.7580571,28 Z M43.3118322,18 C43.3057866,18.552932 42.9571182,19.1817862 42.3503052,19.6478885 C42.1894982,19.7714416 42.0602698,19.8531187 41.9403203,19.9101442 C41.7544618,19.9985037 41.5542594,20.0471915 41.1233518,20.1074783 C41.0037644,20.1242094 40.4855607,20.1913593 40.3661627,20.2074568 C40.1733679,20.2333214 40.1733679,20.2333214 39.9957651,20.2572139 C39.8619076,20.2753508 39.7594019,20.2897097 39.6646169,20.3037675 C39.0536982,20.3943744 38.6837291,20.489741 38.2918416,20.6830545 C38.0568739,20.7989613 37.8297566,20.9454187 37.574142,21.1418155 C36.5971088,21.89151 36.0113075,22.9488426 36,23.9840701 L37.6881679,24 C37.6942215,23.4457788 38.0424159,22.817311 38.6493629,22.3515899 C38.8233125,22.2179392 38.9590688,22.1303962 39.08328,22.0691243 C39.2780538,21.9730447 39.4874077,21.9190797 39.9306414,21.8533426 C40.0166398,21.840588 40.1123027,21.8271876 40.2392984,21.8099804 C40.4134297,21.7865554 40.4134297,21.7865554 40.6085136,21.7603831 C40.7195435,21.7454138 41.2440699,21.6774446 41.3746429,21.6591766 C41.9706897,21.5757857 42.3257489,21.4894378 42.7091144,21.307181 C42.9470961,21.1940415 43.1761185,21.0492908 43.4258581,20.857408 C44.4024734,20.107255 44.9886944,19.0499537 45,18.0159461 L43.3118322,18 Z" id="Combined-Shape"></path>
                    </g>
                </g>
            </g>
        </g>
    </g>
</svg>