<?xml version="1.0" encoding="UTF-8"?>
<svg width="14px" height="17px" viewBox="0 0 14 17" version="1.1" xmlns="http://www.w3.org/2000/svg" xmlns:xlink="http://www.w3.org/1999/xlink">
    <!-- Generator: Sketch 44.1 (41455) - http://www.bohemiancoding.com/sketch -->
    <title>Group 2</title>
    <desc>Created with Sketch.</desc>
    <defs></defs>
    <g id="Page-1" stroke="none" stroke-width="1" fill="none" fill-rule="evenodd">
        <g id="tools-page" transform="translate(-145.000000, -1746.000000)">
            <g id="Group" transform="translate(116.000000, 1517.000000)">
                <g id="Group-2" transform="translate(27.000000, 229.000000)">
                    <g id="ic_timer_black_24px">
                        <polygon id="Shape" points="0 0 18 0 18 18 0 18"></polygon>
                        <path d="M11.25,0.75 L6.75,0.75 L6.75,2.25 L11.25,2.25 L11.25,0.75 Z M8.25,10.5 L9.75,10.5 L9.75,6 L8.25,6 L8.25,10.5 Z M14.2725,5.5425 L15.3375,4.4775 C15.015,4.095 14.6625,3.735 14.28,3.42 L13.215,4.485 C12.0525,3.555 10.59,3 9,3 C5.2725,3 2.25,6.0225 2.25,9.75 C2.25,13.4775 5.265,16.5 9,16.5 C12.735,16.5 15.75,13.4775 15.75,9.75 C15.75,8.16 15.195,6.6975 14.2725,5.5425 Z M9,15 C6.0975,15 3.75,12.6525 3.75,9.75 C3.75,6.8475 6.0975,4.5 9,4.5 C11.9025,4.5 14.25,6.8475 14.25,9.75 C14.25,12.6525 11.9025,15 9,15 Z" id="Shape" fill="#1D3EFB" fill-rule="nonzero"></path>
                    </g>
                </g>
            </g>
        </g>
    </g>
</svg>