<?xml version="1.0" encoding="UTF-8"?>
<svg width="84px" height="60px" viewBox="0 0 84 60" version="1.1" xmlns="http://www.w3.org/2000/svg" xmlns:xlink="http://www.w3.org/1999/xlink">
    <!-- Generator: Sketch 44.1 (41455) - http://www.bohemiancoding.com/sketch -->
    <title>envision_icon</title>
    <desc>Created with Sketch.</desc>
    <defs></defs>
    <g id="Page-1" stroke="none" stroke-width="1" fill="none" fill-rule="evenodd">
        <g id="tools-page" transform="translate(-315.000000, -1029.000000)" fill="#1D3EFB">
            <g id="envision_icon" transform="translate(315.000000, 1029.000000)">
                <g id="noun_694964_cc">
                    <path d="M80.8248,32.7583333 L62.244,3.975 C60.8649007,1.77253919 58.4718031,0.394933662 55.86,0.3 C53.8260155,0.255147934 51.8596564,1.0254792 50.405336,2.43689272 C48.9510155,3.84830624 48.1314976,5.78165984 48.132,7.8 L48.132,12.4166667 C48.1322713,13.0205983 47.6484918,13.5153056 47.04,13.5333333 L36.96,13.5333333 C36.3515082,13.5153056 35.8677287,13.0205983 35.868,12.4166667 L35.868,8.04166667 C35.8994558,4.52394039 33.5187399,1.43434858 30.0888,0.541666667 C26.9359821,-0.234978607 23.6355095,1.07339085 21.8904,3.79166667 L3.1752,32.7583333 L3.1752,32.7583333 C-0.467165371,38.5075067 -0.443328054,45.8243957 3.23642071,51.5500919 C6.91616947,57.2757881 13.5927384,60.3847442 20.3836634,59.5347358 C27.1745884,58.6847273 32.8635258,54.0280019 34.9944,47.575 C35.2161209,46.9109107 35.8432405,46.4636407 36.5484,46.4666667 L47.4684,46.4666667 C48.1735595,46.4636407 48.8006791,46.9109107 49.0224,47.575 C51.1365679,54.0488551 56.8295072,58.7289327 63.6343046,59.5872213 C70.439102,60.4455099 77.1314032,57.3275818 80.8112427,51.5845245 C84.4910821,45.8414671 84.4963642,38.506601 80.8248,32.7583333 Z M18.1524,52.0083333 C12.6560535,52.0037319 8.20371005,47.5805083 8.20680157,42.1277825 C8.2098931,36.6750566 12.6672494,32.2568047 18.1635976,32.2583372 C23.6599459,32.2598698 28.114798,36.6806066 28.1148,42.1333333 C28.1148009,44.7537907 27.064926,47.2667993 25.1963717,49.1189607 C23.3278174,50.9711222 20.79382,52.0105447 18.1524,52.0083333 Z M42,40.4833333 C40.2278287,40.4833333 38.7912,39.0581065 38.7912,37.3 C38.7912,35.5418935 40.2278287,34.1166667 42,34.1166667 C43.7721713,34.1166667 45.2088,35.5418935 45.2088,37.3 C45.2088,39.0581065 43.7721713,40.4833333 42,40.4833333 L42,40.4833333 Z M65.8476,52.0083333 C60.3501576,52.0083333 55.8936,47.5871452 55.8936,42.1333333 C55.8936,36.6795214 60.3501576,32.2583333 65.8476,32.2583333 C71.3450424,32.2583333 75.8016,36.6795214 75.8016,42.1333333 C75.8016,47.5871452 71.3450424,52.0083333 65.8476,52.0083333 L65.8476,52.0083333 Z" id="Shape" fill-rule="nonzero"></path>
                </g>
            </g>
        </g>
    </g>
</svg>