<?xml version="1.0" encoding="UTF-8"?>
<svg width="22px" height="14px" viewBox="0 0 22 14" version="1.1" xmlns="http://www.w3.org/2000/svg" xmlns:xlink="http://www.w3.org/1999/xlink">
    <!-- Generator: Sketch 44.1 (41455) - http://www.bohemiancoding.com/sketch -->
    <title>account-multiple</title>
    <desc>Created with Sketch.</desc>
    <defs></defs>
    <g id="Page-1" stroke="none" stroke-width="1" fill="none" fill-rule="evenodd">
        <g id="tools-page" transform="translate(-254.000000, -1747.000000)" fill-rule="nonzero" fill="#1D3EFB">
            <g id="Group" transform="translate(116.000000, 1517.000000)">
                <g id="account-multiple" transform="translate(138.000000, 230.000000)">
                    <path d="M15,8 C14.71,8 14.38,8 14.03,8.05 C15.19,8.89 16,10 16,11.5 L16,14 L22,14 L22,11.5 C22,9.17 17.33,8 15,8 L15,8 Z M7,8 C4.67,8 0,9.17 0,11.5 L0,14 L14,14 L14,11.5 C14,9.17 9.33,8 7,8 L7,8 Z M7,6 C8.65685425,6 10,4.65685425 10,3 C10,1.34314575 8.65685425,0 7,0 C5.34314575,0 4,1.34314575 4,3 C4,4.65685425 5.34314575,6 7,6 L7,6 Z M15,6 C16.6568542,6 18,4.65685425 18,3 C18,1.34314575 16.6568542,0 15,0 C13.3431458,0 12,1.34314575 12,3 C12,4.65685425 13.3431458,6 15,6 Z" id="Shape"></path>
                </g>
            </g>
        </g>
    </g>
</svg>