<?xml version="1.0" encoding="UTF-8"?>
<svg width="85px" height="78px" viewBox="0 0 85 78" version="1.1" xmlns="http://www.w3.org/2000/svg" xmlns:xlink="http://www.w3.org/1999/xlink">
    <!-- Generator: Sketch 44.1 (41455) - http://www.bohemiancoding.com/sketch -->
    <title>Group 10</title>
    <desc>Created with Sketch.</desc>
    <defs></defs>
    <g id="Page-1" stroke="none" stroke-width="1" fill="none" fill-rule="evenodd">
        <g id="tools-page" transform="translate(-116.000000, -1018.000000)">
            <g id="Group-7" transform="translate(116.000000, 1018.000000)">
                <g id="Group-11">
                    <g id="Group-10">
                        <path d="M42.6737946,33.3152673 C47.0641964,29.052297 53.0096429,26.4342772 59.5569196,26.4342772 C62.1911607,26.4342772 64.7267411,26.8613465 67.1037054,27.6444356 C67.1241964,27.244396 67.1333036,26.8397228 67.1333036,26.4342772 C67.1333036,12.6885149 56.1827232,1.54455446 42.6737946,1.54455446 C29.165625,1.54455446 18.2142857,12.6885149 18.2142857,26.4342772 C18.2142857,26.8397228 18.2249107,27.2436238 18.2438839,27.6444356 C20.6200893,26.859802 23.1564286,26.4342772 25.7914286,26.4342772 C32.3379464,26.4342772 38.2841518,29.052297 42.6737946,33.3152673" id="Fill-28" fill="#3CE5C6"></path>
                        <path d="M43.4596749,34.1533618 L42.6737267,34.9164979 L41.8878433,34.1532928 C37.57836,29.9681689 31.8694787,27.5926931 25.7914286,27.5926931 C23.3196964,27.5926931 20.9003995,27.9851215 18.5952526,28.7462914 L17.1784751,29.2141177 L17.1068095,27.7001714 C17.0863888,27.2687816 17.0758929,26.8476047 17.0758929,26.4342772 C17.0758929,12.0487394 28.536908,0.386138614 42.6737946,0.386138614 C56.8111836,0.386138614 68.2716964,12.0484783 68.2716964,26.4342772 C68.2716964,26.8715939 68.2615527,27.2948037 68.2405549,27.7047345 L68.1633918,29.2111627 L66.753064,28.7465313 C64.4428796,27.9854427 62.0242508,27.5926931 59.5569196,27.5926931 C53.4784743,27.5926931 47.7702604,29.9678912 43.4596749,34.1533618 Z M59.5569196,25.2758614 C61.7480434,25.2758614 63.9053672,25.5583986 65.9927666,26.1091475 C65.8217874,13.152745 55.4470618,2.7029703 42.6737946,2.7029703 C29.9012301,2.7029703 19.5261597,13.1526605 19.3548315,26.10849 C21.4396179,25.5579848 23.5975522,25.2758614 25.7914286,25.2758614 C32.0977337,25.2758614 38.0469624,27.6084819 42.6738515,31.7448947 C47.3015849,27.6082458 53.2502182,25.2758614 59.5569196,25.2758614 Z" id="Stroke-29" fill="#1D3EFB" fill-rule="nonzero"></path>
                        <path d="M35.2833482,51.4823168 C35.2833482,51.0768713 35.2932143,50.6729703 35.3121875,50.2721584 C25.8574554,47.153703 18.9254018,38.3373861 18.4298214,27.8019802 C8.61459821,31.0378218 1.51785714,40.4155842 1.51785714,51.4823168 C1.51785714,65.2280792 12.4684375,76.3720396 25.9773661,76.3720396 C32.5238839,76.3720396 38.4700893,73.7547921 42.8597321,69.4918218 C38.1923214,64.9593267 35.2833482,58.5656436 35.2833482,51.4823168" id="Fill-30" fill="#FC5A5D"></path>
                        <path d="M36.4217411,51.4823168 C36.4217411,58.0574254 39.0622603,64.202861 43.6456629,68.6537763 L44.5086323,69.4918007 L43.6456835,70.3298472 C38.9171466,74.9219321 32.6471725,77.5304554 25.9773661,77.5304554 C11.8399771,77.5304554 0.379464286,65.8681158 0.379464286,51.4823168 C0.379464286,40.1066688 7.60949383,30.1514867 18.0789618,26.6999565 L19.4957084,26.2328894 L19.5669124,27.7465939 C20.0324242,37.6427808 26.50838,46.1506497 35.6631957,49.1701837 L36.4911376,49.4432639 L36.4492619,50.3278942 C36.4309787,50.7141302 36.4217411,51.0993504 36.4217411,51.4823168 Z M34.1449554,51.4823168 C34.1449554,51.3518672 34.1459306,51.2212267 34.1478743,51.0904326 C25.001899,47.7242498 18.459047,39.3096154 17.4108061,29.4041558 C8.61854156,32.933289 2.65625,41.6223343 2.65625,51.4823168 C2.65625,64.5885761 13.0974221,75.2136238 25.9773661,75.2136238 C31.6583899,75.2136238 37.016495,73.1390161 41.210807,69.4513393 C36.7144806,64.652694 34.1449554,58.274029 34.1449554,51.4823168 Z" id="Stroke-31" fill="#1D3EFB" fill-rule="nonzero"></path>
                        <path d="M35.0966518,49.9377624 C35.4070536,43.3371089 38.2431696,37.4106535 42.6441964,33.1384158 C38.2545536,28.8762178 32.3083482,26.2574257 25.7618304,26.2574257 C23.1275893,26.2574257 20.59125,26.6829505 18.2142857,27.4675842 C18.7098661,38.0029901 25.6419196,46.8193069 35.0966518,49.9377624" id="Fill-32" fill="#FC5A5D"></path>
                        <path d="M36.2337435,49.9931327 L36.1625489,51.5070752 L34.7456436,51.0397371 C24.6954907,47.724894 17.5882658,38.3876873 17.0771948,27.5229705 L17.0356049,26.6388233 L17.8630185,26.3656949 C20.3950164,25.5298848 23.0513331,25.0990099 25.7618304,25.0990099 C32.4305676,25.0990099 38.7006684,27.7082223 43.4300733,32.300318 L44.2933337,33.1385153 L43.4299757,33.9766084 C39.1232726,38.1572826 36.5226782,43.8489741 36.2337435,49.9931327 Z M40.9950844,33.1788579 C36.7999819,29.4910098 31.4417809,27.4158416 25.7618304,27.4158416 C23.5907927,27.4158416 21.4596527,27.7187803 19.4102198,28.3086114 C20.1702508,37.3225421 25.9213433,45.0588879 34.0775227,48.3352171 C34.683225,42.6023193 37.1311736,37.3018138 40.9950844,33.1788579 Z" id="Stroke-33" fill="#1D3EFB" fill-rule="nonzero"></path>
                        <path d="M65.7928198,27.7465939 L65.8640254,26.2328538 L67.2807949,26.6999646 C77.749844,30.1516236 84.9802679,40.1070339 84.9802679,51.4823168 C84.9802679,65.8677296 73.5193755,77.5304554 59.383125,77.5304554 C52.7129549,77.5304554 46.4437196,74.9222395 41.7141197,70.3299163 L40.8509551,69.4918051 L41.7141361,68.6537113 C46.2980736,64.2030003 48.93875,58.0576438 48.93875,51.4823168 C48.93875,51.1072075 48.9291776,50.7230908 48.9104702,50.3278942 L48.8685935,49.4432423 L49.6965619,49.1701753 C58.8517429,46.1507632 65.3272901,37.64316 65.7928198,27.7465939 Z M51.2124437,51.0902386 C51.2144991,51.2217555 51.2155357,51.3524238 51.2155357,51.4823168 C51.2155357,58.2742382 48.6458666,64.6528611 44.149056,69.4513372 C48.3441919,73.1392611 53.7017352,75.2136238 59.383125,75.2136238 C72.2619306,75.2136238 82.7034821,64.5881899 82.7034821,51.4823168 C82.7034821,41.6227151 76.740866,32.9334744 67.9489272,29.4041962 C66.90073,39.3097438 60.358461,47.7240374 51.2124437,51.0902386 Z" id="Stroke-34" fill="#1D3EFB" fill-rule="nonzero"></path>
                        <path d="M41.7142208,33.9766084 L40.8508664,33.1385188 L41.7141197,32.3003213 C46.4440526,27.7076748 52.7133474,25.0990099 59.383125,25.0990099 C62.0898806,25.0990099 64.7450562,25.5301713 67.2805521,26.3654885 L68.1086164,26.6382937 L68.0670016,27.5229705 C67.5559131,38.3880608 60.4490939,47.725032 50.3985274,51.0397455 L48.9814825,51.5070921 L48.9104469,49.9930041 C48.6222396,43.8500115 46.0211856,38.1575367 41.7142208,33.9766084 Z M51.0668029,48.3352065 C59.2231036,45.0590353 64.9737887,37.3230894 65.7339435,28.3090309 C63.6816301,27.719092 61.5511797,27.4158416 59.383125,27.4158416 C53.7021379,27.4158416 48.3445477,29.4905755 44.1491037,33.1788479 C48.0132388,37.3020248 50.4615491,42.6030438 51.0668029,48.3352065 Z" id="Stroke-35" fill="#1D3EFB" fill-rule="nonzero"></path>
                        <path d="M51.2033929,51.4081782 C51.2033929,58.6234535 48.3033948,65.3723011 43.273721,70.2557936 L42.4878571,71.0188173 L41.7019933,70.2557936 C36.6723195,65.3723011 33.7723214,58.6234535 33.7723214,51.4081782 C33.7723214,50.9877794 33.7824502,50.5653986 33.8024791,50.142284 L33.8740879,48.6295377 L35.2900936,49.0958908 C37.6009999,49.8569742 40.0204123,50.2497624 42.4878571,50.2497624 C44.956845,50.2497624 47.3754536,49.8572308 49.6845488,49.0959939 L51.100846,48.6290848 L51.1724762,50.142284 C51.1928969,50.5736738 51.2033929,50.9948507 51.2033929,51.4081782 Z M42.4878571,52.5665941 C40.2967946,52.5665941 38.1390956,52.2840714 36.0512621,51.7333963 C36.1317066,57.8013541 38.4611586,63.483657 42.4878571,67.7797558 C46.5145313,63.483683 48.8439795,57.8014228 48.9244508,51.7335063 C46.8375916,52.2842498 44.6801205,52.5665941 42.4878571,52.5665941 Z" id="Stroke-36" fill="#1D3EFB" fill-rule="nonzero"></path>
                        <path d="M42.4582589,33.2079208 C38.0572321,37.4801584 35.2211161,43.4066139 34.9107143,50.0072673 C37.2884375,50.7911287 39.8240179,51.2174257 42.4582589,51.2174257 C45.0932589,51.2174257 47.6280804,50.791901 50.0058036,50.0072673 C49.6961607,43.4073861 46.8592857,37.4801584 42.4582589,33.2079208" id="Fill-37" fill="#FFFFFF"></path>
                        <path d="M41.6724797,32.3697282 L42.4582589,31.6069436 L43.2440382,32.3697282 C47.9701581,36.9575457 50.8265331,43.208797 51.1429013,49.9520256 L51.1843812,50.8361494 L50.3569693,51.1091901 C47.8236865,51.9451574 45.1689453,52.3758416 42.4582589,52.3758416 C39.7498407,52.3758416 37.0945265,51.9448935 34.5598613,51.1092932 L33.7320289,50.8363826 L33.7736226,49.951897 C34.0907768,43.207655 36.9466446,36.9572691 41.6724797,32.3697282 Z M36.1065967,49.165944 C38.1581729,49.755933 40.2887668,50.0590099 42.4582589,50.0590099 C44.6296346,50.0590099 46.7597892,49.7561697 48.8100275,49.1661411 C48.3544313,43.7475164 46.0951217,38.7257169 42.4582595,34.8457455 C38.821714,38.7253934 36.5627699,43.7465361 36.1065967,49.165944 Z" id="Stroke-38" fill="#1D3EFB" fill-rule="nonzero"></path>
                    </g>
                </g>
            </g>
        </g>
    </g>
</svg>