<?xml version="1.0" encoding="UTF-8"?>
<svg width="72px" height="81px" viewBox="0 0 72 81" version="1.1" xmlns="http://www.w3.org/2000/svg" xmlns:xlink="http://www.w3.org/1999/xlink">
    <!-- Generator: Sketch 44.1 (41455) - http://www.bohemiancoding.com/sketch -->
    <title>Group 22</title>
    <desc>Created with Sketch.</desc>
    <defs></defs>
    <g id="Page-1" stroke="none" stroke-width="1" fill="none" fill-rule="evenodd">
        <g id="tools-page" transform="translate(-918.000000, -1013.000000)">
            <g id="Group-22" transform="translate(918.000000, 1013.000000)">
                <polygon id="Fill-14-Copy-2" points="31 80 42 80 42 74 31 74"></polygon>
                <path d="M25,41 C25,55.0054063 27.1370938,67.2631875 30.3319062,74 L41.6680938,74 C44.8629063,67.2631875 47,55.0054063 47,41 C47,32.8194375 45.3713125,25.2366563 43.3679375,19 L28.6320625,19 C26.6286875,25.2366563 25,32.8194375 25,41" id="Fill-17-Copy-2" fill="#1D3EFB"></path>
                <path d="M29,20 L44,20 C40.7384002,9.72420833 36.500175,3 36.500175,3 C36.500175,3 32.2615998,9.72420833 29,20" id="Fill-19-Copy-2"></path>
                <path d="M29,69 C29,69 20.1093753,69 20.1093753,80 L9,80 L9,63.5 C9,63.5 25.7768925,63.5 25.7768925,47 C25.7768925,47 26.0431703,58 29,69" id="Fill-21-Copy-2" fill="#FFFFFF"></path>
                <path d="M1,64.9998646 C1,71.3661539 1.97125834,76.9378842 3.42357561,80 L8.57642439,80 C10.0287417,76.9378842 11,71.3661539 11,64.9998646 C11,61.2816537 10.2596229,57.8346153 9.34896239,55 L2.65103761,55 C1.74071566,57.8346153 1,61.2816537 1,64.9998646" id="Fill-23-Copy-2" fill="#1D3EFB"></path>
                <path d="M43,69 C43,69 51.8906247,69 51.8906247,80 L63,80 L63,63.5 C63,63.5 46.2227603,63.5 46.2227603,47 C46.2227603,47 45.9564825,58 43,69" id="Fill-27-Copy-2" fill="#FFFFFF"></path>
                <path d="M70,64.9998646 C70,71.3661539 69.0287088,76.9378842 67.5763423,80 L62.4233191,80 C60.9712912,76.9378842 60,71.3661539 60,64.9998646 C60,61.2816537 60.7400636,57.8346153 61.6510935,55 L68.349245,55 C69.2595978,57.8346153 70,61.2816537 70,64.9998646" id="Fill-29-Copy-2" fill="#1D3EFB"></path>
                <path d="M42,31 C42,34.3135 39.313875,37 36,37 C32.6865,37 30,34.3135 30,31 C30,27.6865 32.6865,25 36,25 C39.313875,25 42,27.6865 42,31" id="Fill-33-Copy-2" fill="#FFFFFF"></path>
                <g id="Group-21" fill-rule="nonzero" fill="#1D3EFB">
                    <path d="M29,81 L29,73 L43,73 L43,81 L29,81 Z M40,79 L40,76 L32,76 L32,79 L40,79 Z" id="Stroke-16-Copy-2"></path>
                    <path d="M24,41.4738617 C24,33.8931645 25.3543206,26.3259906 27.7388374,18.9501614 L28.0460131,18 L44.9539869,18 L45.2611626,18.9501614 C47.6456794,26.3259906 49,33.8931645 49,41.4738617 C49,55.3836968 46.8961333,68.0505848 43.4753478,75.2178888 L43.1020646,76 L29.8979354,76 L29.5246522,75.2178888 C26.1038667,68.0505848 24,55.3836968 24,41.4738617 Z M27,41.9236499 C27,55.0730511 28.8430189,67.0541752 31.7774899,74 L41.2225101,74 C44.1569811,67.0541752 46,55.0730511 46,41.9236499 C46,34.9088695 44.8387499,27.8799508 42.7778492,21 L30.2221508,21 C28.1612501,27.8799508 27,34.9088695 27,41.9236499 Z" id="Stroke-18-Copy-2"></path>
                    <path d="M27,20 L27.5572536,18.2544396 C28.1237292,16.4799921 28.7429342,14.744246 29.4065902,13.052039 C30.5978258,10.0145957 31.8745954,7.2557242 33.1528709,4.82510169 C33.6017284,3.97160559 34.0193748,3.21911489 34.3953344,2.57387583 C34.6237329,2.18188776 34.7894335,1.9097826 34.8819686,1.76382548 L36.0002136,0 L37.1183931,1.76386766 C37.2109288,1.90983781 37.3766316,2.18196864 37.6050336,2.57399399 C37.9809995,3.21929554 38.3986532,3.97185841 38.8475186,4.82543535 C40.1258171,7.25628919 41.40261,10.0154149 42.5938675,13.0531274 C43.2573427,14.7449924 43.8763929,16.4803746 44.4427464,18.2544396 L45,20 L27,20 Z M42,17 C41.6046875,15.9026149 41.1877027,14.82171 40.7514382,13.7587157 C39.562719,10.8623039 38.2895505,8.23338648 37.0179334,5.92279635 C36.8398503,5.59921065 36.6670154,5.29147557 36.5001262,5 C36.3332694,5.29139819 36.1604694,5.59904839 35.9824233,5.92254199 C34.710836,8.23289989 33.4376971,10.8615619 32.2490055,13.7577029 C31.8125768,14.8210225 31.3954432,15.9022655 31,17 L42,17 Z" id="Stroke-20-Copy-2"></path>
                    <path d="M24.8374052,56 C23.2520742,58.8724243 20.794834,61.0224737 17.666093,62.5062333 C15.6875955,63.4445068 13.5819824,64.0436405 11.4787141,64.3761219 C10.9321044,64.4625291 10.4357558,64.5242184 10,64.5664294 L10,78 L18.449581,78 C18.7546826,73.6107524 20.6038606,70.6102926 23.5248402,68.8676415 C24.6360883,68.2046729 25.8178995,67.7780857 27,67.53796 C26.0424144,63.8164622 25.3340233,59.9197396 24.8374052,56 Z M28.2233481,70.1264907 C28.1936425,70.1264907 28.1046283,70.1301455 27.9653008,70.1424041 C27.7145942,70.1644622 27.4305453,70.2048334 27.1221552,70.2681446 C26.2363759,70.4499911 25.3512698,70.7770662 24.5325087,71.2813303 C22.1806398,72.7298151 20.7611226,75.3526007 20.7611226,79.6528396 L20.7611226,81 L7,81 L7,61.9954151 L8.36529801,61.9954151 C8.46421099,61.9954151 8.67616096,61.9884975 8.98453368,61.9669305 C9.51299965,61.9299705 10.1055006,61.8630314 10.7453067,61.7586219 C12.5724605,61.46045 14.397299,60.9244207 16.0873884,60.0970073 C20.844526,57.7680658 23.6578186,53.6361731 23.6578186,47.0323116 L26.3880219,47 C26.3899139,47.0778138 26.3949869,47.2351642 26.4044098,47.4667207 C26.4202832,47.8567891 26.4428438,48.3104465 26.4732578,48.8223562 C26.560402,50.2891183 26.6929443,51.9252135 26.8801528,53.687843 C27.4146323,58.7201426 28.2784554,63.750391 29.5886461,68.7793302 L29.5426301,68.4325259 L30,70.1264907 L28.2233481,70.1264907 Z" id="Stroke-22-Copy-2"></path>
                    <path d="M0,64.4713606 C0,60.9219524 0.637450633,57.3859623 1.75842285,53.9420463 L2.06505279,53 L10.9348332,53 L11.2415316,53.9419063 C12.3625049,57.3845456 13,60.9212827 13,64.4713606 C13,70.9353252 12.0137687,76.8318011 10.3827734,80.2247037 L10.0100823,81 L2.98991769,81 L2.61722659,80.2247037 C0.986231327,76.8318011 0,70.9353252 0,64.4713606 Z M3,64.9231909 C3,70.6298234 3.83106823,75.8426761 5.14666868,79 L8.85333132,79 C10.1689318,75.8426761 11,70.6298234 11,64.9231909 C11,61.9394978 10.4901045,58.9431545 9.57784886,56 L4.42224894,56 C3.50989842,58.9441725 3,61.9400287 3,64.9231909 Z" id="Stroke-24-Copy-3"></path>
                    <path d="M2,57 L2.59708114,55.1442123 C2.88216134,54.2581545 3.19367043,53.3915918 3.52748515,52.5468191 C4.12750523,51.0283703 4.77086205,49.6486664 5.41583258,48.4315276 C5.80731738,47.6927475 6.11661858,47.1659289 6.30229143,46.8752853 L7.50028658,45 L8.69812949,46.8753825 C8.8838043,47.1660811 9.19311318,47.6930042 9.58460952,48.4319294 C10.2296013,49.6493116 10.8729798,51.029283 11.4730202,52.5480146 C11.8066357,53.3924117 12.1179739,54.2585748 12.4029189,55.1442123 L13,57 L2,57 Z M9,55 C8.93047322,54.7866845 8.85974669,54.574609 8.78787222,54.3638122 C8.37493326,53.1527256 7.93980534,52.0271776 7.50007272,51 C7.06043323,52.0268252 6.62539921,53.1519741 6.21254609,54.3626244 C6.14052735,54.5738122 6.06966127,54.7862837 6,55 L9,55 Z" id="Stroke-26-Copy-2"></path>
                    <path d="M43.7766023,70.1264907 L42,70.1264907 L42.4113011,68.7793302 L42.457307,68.4325639 C43.7213385,63.7504206 44.5850693,58.7201643 45.1194977,53.6878568 C45.3066883,51.9252246 45.4392191,50.2891268 45.5263571,48.8223622 C45.5567689,48.3104514 45.5793281,47.856793 45.5952007,47.4667235 C45.6046232,47.2351661 45.6096961,47.0778147 45.6115882,47 L48.3417978,47.0323116 C48.3417978,53.6361659 51.1551547,57.7680579 55.912408,60.0970024 C57.6025405,60.9244178 59.4274256,61.4604485 61.2546262,61.7586212 C61.8944488,61.8630309 62.4869651,61.9299702 63.0154449,61.9669303 C63.3238261,61.9884975 63.5357823,61.9954151 63.6346988,61.9954151 L65,61.9954151 L65,81 L51.2388453,81 L51.2388453,79.6528396 C51.2388453,75.3526007 49.8193248,72.7298151 47.4674503,71.2813303 C46.6486874,70.7770662 45.7635791,70.4499911 44.8777978,70.2681446 C44.569407,70.2048334 44.2853574,70.1644622 44.0346503,70.1424041 C43.8953224,70.1301455 43.806308,70.1264907 43.7766023,70.1264907 Z M48.4992852,68.8676206 C51.4150544,70.6102757 53.2609339,73.6107424 53.5654912,78 L62,78 L62,64.5664012 C61.5650082,64.5241903 61.0695281,64.4625003 60.5238737,64.3760916 C58.4243184,64.0436102 56.3224225,63.4444764 54.3474176,62.5062028 C51.2242124,61.022449 48.7713152,58.8724097 47.1887791,56 C46.682318,60.0051202 45.9583301,63.9597912 45,67.5318062 C46.1900998,67.7707712 47.3805171,68.1989714 48.4992852,68.8676206 Z" id="Stroke-28-Copy-3"></path>
                    <path d="M70,64.9231909 C70,61.9397326 69.4901884,58.9436082 68.5780429,56 L63.4221191,56 C62.5099158,58.9421384 62,61.9389667 62,64.9231909 C62,70.6295433 62.8310361,75.8424766 64.1464856,79 L67.853232,79 C69.1688933,75.8426761 70,70.6298234 70,64.9231909 Z M72,64.4713606 C72,70.9353252 71.0137423,76.8318011 69.3827035,80.2247037 L69.0100025,81 L61.9895636,81 L61.6168962,80.224593 C59.9861745,76.8315591 59,70.9349924 59,64.4713606 C59,60.9206128 59.6375559,57.3831316 60.758561,53.9417663 L61.065336,53 L69.9352391,53 L70.2418773,53.9420463 C71.3626431,57.3852364 72,60.9216133 72,64.4713606 Z" id="Stroke-30-Copy-2"></path>
                    <path d="M66.7874615,54.3626496 C66.3746021,53.151985 65.9395604,52.0268273 65.4999137,51 C65.0605077,52.0263383 64.6257067,53.1509379 64.2130706,54.3609897 C64.1408706,54.5727155 64.0698295,54.785732 64,55 L67,55 C66.9303411,54.7862921 66.8594776,54.573829 66.7874615,54.3626496 Z M60,57 L60.5969204,55.1442779 C60.882112,54.2576669 61.1937729,53.3905777 61.5277714,52.5453095 C62.1276307,51.0272131 62.7708157,49.6478422 63.4156147,48.4310067 C63.8069972,47.6924073 64.1162195,47.1657186 64.3018481,46.8751438 L65.4997512,45 L66.6976543,46.8751438 C66.8833295,47.1657914 67.1926346,47.6926174 67.5841243,48.4314078 C68.229103,49.6485636 68.8724679,51.0282868 69.4724956,52.5467569 C69.8063145,53.3915414 70.1178275,54.2581162 70.4029113,55.1441863 L71,57 L60,57 Z" id="Stroke-32-Copy-2"></path>
                    <polygon id="Stroke-35-Copy-4" points="26 60 46 60 46 57 26 57"></polygon>
                </g>
            </g>
        </g>
    </g>
</svg>