<?xml version="1.0" encoding="UTF-8"?>
<svg width="73px" height="76px" viewBox="0 0 73 76" version="1.1" xmlns="http://www.w3.org/2000/svg" xmlns:xlink="http://www.w3.org/1999/xlink">
    <!-- Generator: Sketch 44.1 (41455) - http://www.bohemiancoding.com/sketch -->
    <title>explore_icon</title>
    <desc>Created with Sketch.</desc>
    <defs></defs>
    <g id="Page-1" stroke="none" stroke-width="1" fill="none" fill-rule="evenodd">
        <g id="tools-page" transform="translate(-516.000000, -1020.000000)">
            <g id="explore_icon" transform="translate(516.000000, 1020.000000)">
                <g id="Group-19-Copy">
                    <polygon id="Fill-2-Copy-2" fill="#07C5FF" transform="translate(37.319746, 41.324675) rotate(20.000000) translate(-37.319746, -41.324675) " points="43.6613399 42.8546184 41.3355397 46.4779074 30.9781528 39.794194 33.3036829 36.1714424"></polygon>
                    <path d="M59.4805533,39.2562879 C55.9004255,39.2562879 52.9982396,36.3694246 52.9982396,32.8084672 C52.9982396,29.2472411 55.9004255,26.3603777 59.4805533,26.3603777 C63.0606812,26.3603777 65.9628671,29.2472411 65.9628671,32.8084672 C65.9628671,36.3694246 63.0606812,39.2562879 59.4805533,39.2562879 L59.4805533,39.2562879 Z M72.580229,35.0921655 L72.580229,30.7934392 L70.0918308,30.7934392 C69.8268662,29.4038759 69.2928856,28.1096906 68.545799,26.9651548 L70.2711748,25.2486196 L67.2155742,22.2091514 L65.5193688,23.8961328 C64.365787,23.1210188 63.0536587,22.5621843 61.6413246,22.277125 L61.6413246,19.9122882 L57.3197821,19.9122882 L57.3197821,22.277125 C55.907448,22.5621843 54.5953196,23.1210188 53.4417379,23.8961328 L51.7455324,22.2091514 L48.6899318,25.2486196 L50.4153076,26.9651548 C49.668221,28.1096906 49.1342404,29.4038759 48.8692758,30.7934392 L46.3808776,30.7934392 L46.3808776,35.0921655 L48.9235652,35.0921655 C49.2182404,36.4454583 49.7668062,37.7049851 50.5209153,38.8153998 L48.6899318,40.6369851 L51.7455324,43.6764533 L53.6062266,41.8255829 C54.7201042,42.5448136 55.9738917,43.0679148 57.3197821,43.3395406 L57.3197821,45.9733165 L61.6413246,45.9733165 L61.6413246,43.3395406 C62.987215,43.0679148 64.2410025,42.5448136 65.35488,41.8255829 L67.2155742,43.6764533 L70.2711748,40.6369851 L68.4401913,38.8153998 C69.1943005,37.7049851 69.7428663,36.4454583 70.0375414,35.0921655 L72.580229,35.0921655 Z" id="Fill-4-Copy-2" fill="#1D3EFB" transform="translate(59.480553, 32.942802) rotate(20.000000) translate(-59.480553, -32.942802) "></path>
                    <path d="M20.8727859,65.7095997 C20.8727859,69.1412063 18.0950231,71.9239862 14.6683584,71.9239862 C11.2413085,71.9239862 8.46354568,69.1412063 8.46354568,65.7095997 C8.46354568,62.2776074 11.2413085,59.4948275 14.6683584,59.4948275 C18.0950231,59.4948275 20.8727859,62.2776074 20.8727859,65.7095997" id="Fill-8-Copy-2" fill="#1D3EFB" transform="translate(14.668166, 65.709407) rotate(20.000000) translate(-14.668166, -65.709407) "></path>
                    <path d="M21.8455261,54.2116754 C21.8455261,55.7335491 20.6136238,56.9676764 19.0939418,56.9676764 C17.574089,56.9676764 16.3421867,55.7335491 16.3421867,54.2116754 C16.3421867,52.6896307 17.574089,51.4555034 19.0939418,51.4555034 C20.6136238,51.4555034 21.8455261,52.6896307 21.8455261,54.2116754" id="Fill-8-Copy-3" fill="#1D3EFB" transform="translate(19.093856, 54.211590) rotate(20.000000) translate(-19.093856, -54.211590) "></path>
                    <polygon id="Stroke-12-Copy-2" fill="#1D3EFB" transform="translate(37.319746, 41.324675) rotate(20.000000) translate(-37.319746, -41.324675) " points="43.6613399 42.8546184 41.3355397 46.4779074 30.9781528 39.794194 33.3036829 36.1714424"></polygon>
                    <polygon id="Stroke-14-Copy-2" fill="#1D3EFB" fill-rule="nonzero" transform="translate(50.441139, 58.080145) rotate(19.000000) translate(-50.441139, -58.080145) " points="61.3612805 72.4927497 32.7020449 54.2914663 39.5217182 43.6675395 68.1802324 61.8687504"></polygon>
                    <path d="M39.7651227,21.2160055 C39.7651227,11.5679121 31.8991553,3.74347416 22.1915701,3.74347416 C12.483985,3.74347416 4.61801758,11.5679121 4.61801758,21.2160055 C4.61801758,30.8640988 12.483985,38.6885367 22.1915701,38.6885367 C31.8991553,38.6885367 39.7651227,30.8640988 39.7651227,21.2160055 Z M43.5119,21.2160055 C43.5119,32.9352685 33.9647521,42.4320109 22.1915701,42.4320109 C10.4183881,42.4320109 0.871240234,32.9352685 0.871240234,21.2160055 C0.871240234,9.49674241 10.4183881,0 22.1915701,0 C33.9647521,0 43.5119,9.49674241 43.5119,21.2160055 Z" id="Stroke-34-Copy-4" fill="#1D3EFB" fill-rule="nonzero"></path>
                </g>
            </g>
        </g>
    </g>
</svg>