<?xml version="1.0" encoding="UTF-8"?>
<svg width="126px" height="54px" viewBox="0 0 126 54" version="1.1" xmlns="http://www.w3.org/2000/svg" xmlns:xlink="http://www.w3.org/1999/xlink">
    <!-- Generator: Sketch 44.1 (41455) - http://www.bohemiancoding.com/sketch -->
    <title>Page 1</title>
    <desc>Created with Sketch.</desc>
    <defs>
        <polygon id="path-1" points="0 53.4972067 125.622704 53.4972067 125.622704 0.196391061 0 0.196391061"></polygon>
    </defs>
    <g id="Page-1" stroke="none" stroke-width="1" fill="none" fill-rule="evenodd">
        <g id="ICONS-AND-ILLUSTRATION" transform="translate(-249.000000, -2250.000000)">
            <g id="Page-1" transform="translate(249.000000, 2250.000000)">
                <polygon id="Fill-1" fill="#51C8B2" points="51.5987598 36.6710682 125.622704 36.6710682 125.622704 0.703347486 51.5987598 0.703347486"></polygon>
                <g id="Group-13" transform="translate(0.000000, 0.507660)">
                    <path d="M20.7262961,21.8462883 C20.7262961,21.454914 20.8522961,21.1332268 21.1028883,20.8777073 C21.3541844,20.6242994 21.7075475,20.4954838 22.160162,20.4954838 C22.6205196,20.4954838 22.9774022,20.6242994 23.2336257,20.8777073 C23.4870335,21.1332268 23.6144413,21.454914 23.6144413,21.8462883 C23.6144413,22.2369587 23.4870335,22.5586458 23.2336257,22.8141654 C22.9774022,23.0675732 22.6205196,23.194981 22.160162,23.194981 C21.7075475,23.194981 21.3541844,23.0675732 21.1028883,22.8141654 C20.8522961,22.5586458 20.7262961,22.2369587 20.7262961,21.8462883 Z M17.4207318,24.7752603 L23.4574693,24.7752603 L23.4574693,34.023238 L26.814419,34.023238 L26.814419,36.094143 L17.4207318,36.094143 L17.4207318,34.023238 L20.9360615,34.023238 L20.9360615,26.8560201 L17.4207318,26.8560201 L17.4207318,24.7752603 Z" id="Fill-2" fill="#1D3EFB"></path>
                    <path d="M34.1363564,24.7753307 L34.2926246,26.3443475 C34.7044123,25.7798112 35.2006693,25.3419788 35.7835073,25.0315542 C36.3649374,24.7211296 37.0125352,24.5655654 37.7241888,24.5655654 C38.3028034,24.5655654 38.8314402,24.6493307 39.3086916,24.8175654 C39.7866469,24.9843922 40.1977307,25.245543 40.5433508,25.6010179 C40.8889709,25.9564927 41.156457,26.4168503 41.3486246,26.9820905 C41.5400883,27.5473307 41.6358201,28.2273084 41.6358201,29.0220235 L41.6358201,36.0942134 L39.1369374,36.0942134 L39.1369374,29.0642581 C39.1369374,28.5968615 39.0820324,28.2061911 38.9736302,27.8929508 C38.8666358,27.5783028 38.7124793,27.3277106 38.5132726,27.1390626 C38.3154737,26.9511184 38.0726246,26.8166715 37.7868369,26.7364257 C37.5003453,26.6568838 37.1765464,26.616057 36.8147363,26.616057 C36.2628704,26.616057 35.7835073,26.7378335 35.3752391,26.9820905 C34.9676749,27.2256436 34.6382447,27.5578894 34.3869486,27.9760123 L34.3869486,36.0942134 L31.8768034,36.0942134 L31.8768034,24.7753307 L34.1363564,24.7753307 Z" id="Fill-4" fill="#1D3EFB"></path>
                    <mask id="mask-2" fill="white">
                        <use xlink:href="#path-1"></use>
                    </mask>
                    <g id="Clip-7"></g>
                    <polygon id="Fill-6" fill="#1D3EFB" mask="url(#mask-2)" points="0 53.4979106 41.6356089 53.4979106 41.6356089 46.0385698 0 46.0385698"></polygon>
                    <polygon id="Fill-8" fill="#1D3EFB" mask="url(#mask-2)" points="0 53.3648715 7.45863687 53.3648715 7.45863687 11.7285587 0 11.7285587"></polygon>
                    <polygon id="Fill-9" fill="#FFFFFF" mask="url(#mask-2)" points="61.5614179 10.1589084 67.6812168 10.1589084 67.6812168 24.155467 71.1338983 24.155467 71.1338983 26.227076 61.5614179 26.227076 61.5614179 24.155467 65.1598089 24.155467 65.1598089 12.2396682 61.5614179 12.2396682"></polygon>
                    <path d="M80.3064168,24.4165475 C80.6266961,24.4165475 80.9279698,24.3771285 81.2095341,24.2961788 C81.4932101,24.2173408 81.7473218,24.1124581 81.973981,23.9829385 C82.1999363,23.8541229 82.3956235,23.7048939 82.5603385,23.538067 C82.7236458,23.3705363 82.8545732,23.2001899 82.9524168,23.0256201 L82.9524168,20.9019218 L81.3622827,20.9019218 C80.343724,20.9019218 79.5919475,21.065933 79.1083609,21.3939553 C78.6219587,21.7219777 78.3812212,22.1886704 78.3812212,22.7954413 C78.3812212,23.0256201 78.4185285,23.2403128 78.4959587,23.4388156 C78.571981,23.6387263 78.6895341,23.8083687 78.8458022,23.9519665 C79.0027743,24.0941564 79.2012771,24.207486 79.4420145,24.2905475 C79.682752,24.3743128 79.9713553,24.4165475 80.3064168,24.4165475 L80.3064168,24.4165475 Z M83.3184503,26.2270056 C83.249467,26.0876313 83.1910425,25.9229162 83.1459922,25.7342682 C83.100238,25.5456201 83.060819,25.3435978 83.0256235,25.1282011 C82.8517575,25.3098101 82.6532547,25.4794525 82.4343385,25.6350168 C82.2140145,25.7933966 81.9697575,25.9292514 81.7022715,26.0482123 C81.4333777,26.1664693 81.1440704,26.2614972 80.8329419,26.3318883 C80.5239251,26.4008715 80.1902715,26.436067 79.8347966,26.436067 C79.2350648,26.436067 78.6923497,26.349486 78.2087631,26.1798436 C77.7230648,26.0094972 77.3084615,25.7722793 76.9628413,25.4681899 C76.6186291,25.1655084 76.3518469,24.8072179 76.1631989,24.3954302 C75.9752547,23.9843464 75.8802268,23.538067 75.8802268,23.0565922 C75.8802268,21.8430503 76.3321374,20.9152961 77.2345508,20.2740335 C78.1383721,19.632067 79.4342715,19.3110838 81.1222492,19.3110838 L82.9524168,19.3110838 L82.9524168,18.569162 C82.9524168,17.9694302 82.7496905,17.4942905 82.3449419,17.1409274 C81.9408972,16.789676 81.3693218,16.6122905 80.6295117,16.6122905 C80.2944503,16.6122905 80.0016235,16.6531173 79.7510313,16.734067 C79.4997352,16.812905 79.2906737,16.923419 79.123143,17.0634972 C78.9556123,17.2021676 78.8303162,17.3654749 78.7465508,17.5541229 C78.6627855,17.7427709 78.6205508,17.9447933 78.6205508,18.1601899 L76.1216682,18.1601899 C76.1216682,17.7209497 76.2230313,17.2943799 76.429981,16.8804804 C76.634819,16.4644693 76.9375006,16.0949162 77.3352101,15.7718212 C77.7329196,15.4466145 78.217914,15.1868715 78.7944168,14.9911844 C79.3688078,14.7962011 80.0276682,14.6983575 80.7660704,14.6983575 C81.4354894,14.6983575 82.0563385,14.781419 82.6286179,14.9440223 C83.2001933,15.1087374 83.6950425,15.3529944 84.1138693,15.6767933 C84.5326961,16.0012961 84.8600145,16.4060447 85.0972324,16.8903352 C85.3344503,17.3753296 85.4534112,17.9419777 85.4534112,18.5902793 L85.4534112,23.633095 C85.4534112,24.1279441 85.4893106,24.5791508 85.5618134,24.987419 C85.635724,25.3956872 85.7420145,25.7490503 85.8813888,26.0482123 L85.8813888,26.2270056 L83.3184503,26.2270056 Z" id="Fill-10" fill="#FFFFFF" mask="url(#mask-2)"></path>
                    <path d="M93.3590313,14.9082637 L93.5167073,16.4772804 C93.928495,15.9127441 94.424752,15.4742078 95.0075899,15.1644872 C95.5890201,14.8533587 96.2366179,14.6984983 96.9482715,14.6984983 C97.526886,14.6984983 98.0541151,14.7822637 98.5327743,14.9497944 C99.0093218,15.1173251 99.4218134,15.3777721 99.7667296,15.7339508 C100.113054,16.0894257 100.38054,16.5497832 100.572707,17.1150235 C100.764171,17.6795598 100.859903,18.3602413 100.859903,19.1549564 L100.859903,26.2271464 L98.3596123,26.2271464 L98.3596123,19.1971911 C98.3596123,18.7297944 98.3047073,18.339124 98.1977128,18.0258838 C98.0886067,17.7112358 97.936562,17.4606436 97.7373553,17.2719955 C97.5388525,17.0840514 97.2967073,16.9496045 97.0102156,16.8693587 C96.7244279,16.7898168 96.3992212,16.7489899 96.0374112,16.7489899 C95.4855453,16.7489899 95.0075899,16.8707665 94.5993218,17.1150235 C94.1917575,17.3585765 93.8609196,17.6908223 93.6096235,18.1089453 L93.6096235,26.2271464 L91.0994782,26.2271464 L91.0994782,14.9082637 L93.3590313,14.9082637 Z" id="Fill-11" fill="#FFFFFF" mask="url(#mask-2)"></path>
                    <path d="M108.264198,20.7031374 C108.264198,21.2127687 108.312768,21.6893162 108.410611,22.1355955 C108.508455,22.5825788 108.662611,22.9732492 108.875896,23.3076067 C109.088477,23.6426682 109.360187,23.9059307 109.691728,24.0980983 C110.022566,24.289562 110.418868,24.3852939 110.879226,24.3852939 C111.450801,24.3852939 111.918198,24.2621095 112.280712,24.0150369 C112.64393,23.7665564 112.933941,23.4329028 113.149337,23.0147799 L113.149337,18.0979642 C112.933941,17.6868804 112.642522,17.3588581 112.27508,17.1146011 C111.910455,16.871048 111.450801,16.7492715 110.899639,16.7492715 C110.432946,16.7492715 110.033829,16.8464112 109.701583,17.0420983 C109.371449,17.2370816 109.09974,17.5052715 108.885751,17.8466682 C108.673874,18.1887687 108.516198,18.5857743 108.416242,19.0397966 C108.314175,19.4924112 108.264198,19.973886 108.264198,20.4835173 L108.264198,20.7031374 Z M105.763907,20.4835173 C105.763907,19.6254503 105.869494,18.8412939 106.078555,18.1303441 C106.286913,17.4186905 106.587483,16.8076961 106.978153,16.2987687 C107.368823,15.7898413 107.83974,15.3963553 108.395125,15.1169028 C108.949103,14.8381542 109.572064,14.6987799 110.2626,14.6987799 C110.883449,14.6987799 111.430388,14.8043665 111.90412,15.0183553 C112.378555,15.2302324 112.794566,15.5357296 113.149337,15.9334391 L113.149337,10.1592603 L115.660891,10.1592603 L115.660891,26.2274279 L113.389371,26.2274279 L113.264779,25.0765341 C112.9086,25.5157743 112.481326,25.8515397 111.982254,26.0859419 C111.484589,26.3196402 110.904566,26.4364894 110.242187,26.4364894 C109.557985,26.4364894 108.940656,26.2907799 108.389494,26.0021765 C107.839036,25.7121654 107.369527,25.313752 106.982377,24.8041207 C106.59593,24.2951933 106.29536,23.6898302 106.082075,22.9894391 C105.870902,22.2883441 105.763907,21.5267128 105.763907,20.7031374 L105.763907,20.4835173 Z" id="Fill-12" fill="#FFFFFF" mask="url(#mask-2)"></path>
                </g>
            </g>
        </g>
    </g>
</svg>