<?xml version="1.0" encoding="UTF-8"?>
<svg width="126px" height="54px" viewBox="0 0 126 54" version="1.1" xmlns="http://www.w3.org/2000/svg" xmlns:xlink="http://www.w3.org/1999/xlink">
    <!-- Generator: Sketch 44.1 (41455) - http://www.bohemiancoding.com/sketch -->
    <title>logo</title>
    <desc>Created with Sketch.</desc>
    <defs></defs>
    <g id="Page-1" stroke="none" stroke-width="1" fill="none" fill-rule="evenodd">
        <g id="homepage-form-open" transform="translate(-537.000000, -43.000000)">
            <g id="logo" transform="translate(537.000000, 43.000000)">
                <g id="Group-6">
                    <polygon id="Fill-1" fill="#FFFFFF" points="51.5987598 36.5349974 125.622704 36.5349974 125.622704 0.700737662 51.5987598 0.700737662"></polygon>
                    <path d="M20.7263665,22.2710026 C20.7263665,21.8810805 20.8523665,21.560587 21.1029587,21.3060156 C21.3542547,21.0535481 21.7076179,20.9252104 22.1602324,20.9252104 C22.6205899,20.9252104 22.9774726,21.0535481 23.2336961,21.3060156 C23.4871039,21.560587 23.6145117,21.8810805 23.6145117,22.2710026 C23.6145117,22.6602234 23.4871039,22.9807169 23.2336961,23.2352883 C22.9774726,23.4877558 22.6205899,23.6146909 22.1602324,23.6146909 C21.7076179,23.6146909 21.3542547,23.4877558 21.1029587,23.2352883 C20.8523665,22.9807169 20.7263665,22.6602234 20.7263665,22.2710026 Z M17.4208022,25.1891065 L23.4575397,25.1891065 L23.4575397,34.4027688 L26.8144894,34.4027688 L26.8144894,36.4659896 L17.4208022,36.4659896 L17.4208022,34.4027688 L20.9361318,34.4027688 L20.9361318,27.2621455 L17.4208022,27.2621455 L17.4208022,25.1891065 Z" id="Fill-2" fill="#FFFFFF"></path>
                    <path d="M34.1364268,25.1891766 L34.292695,26.7523714 C34.7044827,26.1899299 35.2007397,25.7537221 35.7835777,25.4444494 C36.3650078,25.1351766 37.0126056,24.9801896 37.7242592,24.9801896 C38.3028737,24.9801896 38.8315106,25.0636442 39.308762,25.2312545 C39.7867173,25.3974623 40.1978011,25.6576442 40.5434212,26.0118 C40.8890413,26.3659558 41.1565274,26.8246052 41.348695,27.3877481 C41.5401587,27.9508909 41.6358905,28.6283455 41.6358905,29.4201117 L41.6358905,36.4660597 L39.1370078,36.4660597 L39.1370078,29.4621896 C39.1370078,28.9965273 39.0821028,28.6073065 38.9737006,28.2952286 C38.8667061,27.9817481 38.7125497,27.7320857 38.513343,27.5441377 C38.3155441,27.3568909 38.072695,27.2229429 37.7869073,27.1429948 C37.5004156,27.0637481 37.1766168,27.0230727 36.8148067,27.0230727 C36.2629408,27.0230727 35.7835777,27.1443974 35.3753095,27.3877481 C34.9677453,27.6303974 34.6383151,27.9614104 34.387019,28.3779818 L34.387019,36.4660597 L31.8768737,36.4660597 L31.8768737,25.1891766 L34.1364268,25.1891766 Z" id="Fill-4" fill="#FFFFFF"></path>
                    <polygon id="Fill-6" fill="#FFFFFF" points="0 53.8051792 41.6356089 53.8051792 41.6356089 46.3735169 0 46.3735169"></polygon>
                    <polygon id="Fill-8" fill="#FFFFFF" points="0 53.6726338 7.45863687 53.6726338 7.45863687 12.1908156 0 12.1908156"></polygon>
                    <polygon id="Fill-9" fill="#1D3EFB" points="61.5614179 10.6269896 67.6812168 10.6269896 67.6812168 24.571613 71.1338983 24.571613 71.1338983 26.6355351 61.5614179 26.6355351 61.5614179 24.571613 65.1598089 24.571613 65.1598089 12.7000286 61.5614179 12.7000286"></polygon>
                    <path d="M80.3057832,24.8317247 C80.6267665,24.8317247 80.9280402,24.7924519 81.2096045,24.7118026 C81.4932804,24.6332571 81.7466883,24.5287636 81.9740514,24.3997247 C82.2000067,24.271387 82.3956939,24.1227117 82.559705,23.9565039 C82.7237162,23.7895948 82.8546436,23.6198805 82.9524872,23.4459584 L82.9524872,21.3301403 L81.3616492,21.3301403 C80.3437944,21.3301403 79.5920179,21.4935429 79.1077274,21.8203481 C78.6220291,22.1471532 78.3812916,22.6121143 78.3812916,23.2166338 C78.3812916,23.4459584 78.4185989,23.6598545 78.4960291,23.8576208 C78.5720514,24.0567896 78.6896045,24.2258026 78.8458726,24.3688675 C79.0028447,24.5105299 79.2013475,24.623439 79.4420849,24.7061922 C79.6821184,24.7896468 79.9707218,24.8317247 80.3057832,24.8317247 L80.3057832,24.8317247 Z M83.3185207,26.6354649 C83.2495374,26.4966078 83.1911128,26.3325039 83.1460626,26.1445558 C83.1003084,25.9566078 83.0608894,25.7553351 83.0256939,25.5407377 C82.8518279,25.7216727 82.6533251,25.8906857 82.4344089,26.0456727 C82.2140849,26.2034649 81.9698279,26.3388156 81.7023419,26.4573351 C81.433448,26.5751532 81.1441408,26.6698286 80.8330123,26.7399584 C80.5239955,26.8086857 80.1903419,26.8437506 79.834867,26.8437506 C79.2351352,26.8437506 78.6924201,26.7574909 78.2088335,26.5884779 C77.7231352,26.4187636 77.3085318,26.182426 76.9629117,25.8794649 C76.6186994,25.5779065 76.3519173,25.2209455 76.1632693,24.8106857 C75.9753251,24.4011273 75.8802972,23.9565039 75.8802972,23.4768156 C75.8802972,22.2677766 76.3322078,21.3434649 77.2346212,20.7045818 C78.1384425,20.0649974 79.4343419,19.7452052 81.1216156,19.7452052 L82.9524872,19.7452052 L82.9524872,19.0060364 C82.9524872,18.4085299 82.7497609,17.9351532 82.3450123,17.5831013 C81.9409676,17.2331532 81.3693922,17.056426 80.6295821,17.056426 C80.2945207,17.056426 80.0016939,17.0971013 79.7511017,17.1777506 C79.4998056,17.2562961 79.2907441,17.3664 79.1232134,17.5059584 C78.9556827,17.6441143 78.8303866,17.8068156 78.7466212,17.9947636 C78.6628559,18.1827117 78.6206212,18.3839844 78.6206212,18.5985818 L76.1217385,18.5985818 C76.1217385,18.1609714 76.2231017,17.7359844 76.4300514,17.3236208 C76.6348894,16.9091532 76.9375709,16.5409714 77.3345765,16.2190753 C77.7329899,15.8950753 78.2179844,15.6362961 78.7944872,15.4413351 C79.3688782,15.2470753 80.0270346,15.1495948 80.7661408,15.1495948 C81.4355598,15.1495948 82.0564089,15.2323481 82.6286883,15.3943481 C83.2002637,15.5584519 83.6951128,15.8018026 84.1139397,16.1244 C84.5327665,16.4476987 84.8600849,16.8509455 85.0973028,17.333439 C85.3345207,17.8166338 85.4527777,18.3811792 85.4527777,19.0270753 L85.4527777,24.0511792 C85.4527777,24.5441922 85.489381,24.9937247 85.5618838,25.4004779 C85.6357944,25.8072312 85.7420849,26.1592831 85.8814592,26.4573351 L85.8814592,26.6354649 L83.3185207,26.6354649 Z" id="Fill-10" fill="#1D3EFB"></path>
                    <path d="M93.3591017,15.3587221 L93.5167777,16.9219169 C93.9285654,16.3594753 94.4248223,15.9225662 95.0076603,15.6139948 C95.5890905,15.3040208 96.2366883,15.1497351 96.947638,15.1497351 C97.5269564,15.1497351 98.0541855,15.2331896 98.5328447,15.4000987 C99.0086883,15.5670078 99.4218838,15.8264883 99.7668,16.1813455 C100.11242,16.5355013 100.38061,16.9941506 100.572778,17.5572935 C100.764241,18.1197351 100.859973,18.7978909 100.859973,19.5896571 L100.859973,26.6356052 L98.3596827,26.6356052 L98.3596827,19.6317351 C98.3596827,19.1660727 98.3047777,18.7768519 98.1977832,18.464774 C98.0886771,18.1512935 97.9366324,17.9016312 97.7374257,17.7136831 C97.5389229,17.5264364 97.2967777,17.3924883 97.010286,17.3125403 C96.7244983,17.2332935 96.3992916,17.1926182 96.0367777,17.1926182 C95.4856156,17.1926182 95.0076603,17.3139429 94.5986883,17.5572935 C94.1918279,17.7999429 93.8609899,18.1309558 93.6096939,18.5475273 L93.6096939,26.6356052 L91.0995486,26.6356052 L91.0995486,15.3587221 L93.3591017,15.3587221 Z" id="Fill-11" fill="#1D3EFB"></path>
                    <path d="M108.263564,21.1320935 C108.263564,21.6398338 108.312134,22.114613 108.410682,22.5592364 C108.508525,23.004561 108.662682,23.3937818 108.875966,23.7268987 C109.088547,24.0607169 109.360257,24.3230026 109.691799,24.5144571 C110.022637,24.7052104 110.418939,24.800587 110.879296,24.800587 C111.450872,24.800587 111.918268,24.6778597 112.280782,24.4317039 C112.644,24.1841455 112.934011,23.8517299 113.149408,23.4351584 L113.149408,18.536587 C112.934011,18.1270286 112.642592,17.8002234 112.275151,17.5568727 C111.909821,17.3142234 111.450872,17.1928987 110.899709,17.1928987 C110.433017,17.1928987 110.033899,17.2896779 109.701654,17.484639 C109.37152,17.6788987 109.099106,17.9460935 108.885821,18.2862234 C108.673944,18.6270545 108.516268,19.022587 108.416313,19.4749247 C108.314246,19.9258597 108.263564,20.4055481 108.263564,20.9132883 L108.263564,21.1320935 Z M105.763978,20.9132883 C105.763978,20.0584052 105.869564,19.2771584 106.078626,18.5688468 C106.286983,17.8598338 106.586849,17.2511065 106.978223,16.7440675 C107.368894,16.2370286 107.83981,15.8450026 108.395196,15.566587 C108.949173,15.2888727 109.572134,15.1500156 110.26267,15.1500156 C110.88352,15.1500156 111.429754,15.2552104 111.90419,15.4684052 C112.378626,15.6794961 112.794637,15.9838597 113.149408,16.3800935 L113.149408,10.6273403 L115.660961,10.6273403 L115.660961,26.6358857 L113.389441,26.6358857 L113.264145,25.4892623 C112.90867,25.9268727 112.481397,26.2613922 111.982324,26.4949247 C111.484659,26.7277558 110.904637,26.8441714 110.242257,26.8441714 C109.558056,26.8441714 108.940726,26.6990026 108.389564,26.4114701 C107.838402,26.1225351 107.369598,25.7256 106.982447,25.2178597 C106.596,24.7108208 106.29543,24.1077039 106.082145,23.4099117 C105.870972,22.7114182 105.763978,21.952613 105.763978,21.1320935 L105.763978,20.9132883 Z" id="Fill-12" fill="#1D3EFB"></path>
                </g>
            </g>
        </g>
    </g>
</svg>