<?xml version="1.0" standalone="no"?>
<!DOCTYPE svg PUBLIC "-//W3C//DTD SVG 20010904//EN"
 "http://www.w3.org/TR/2001/REC-SVG-20010904/DTD/svg10.dtd">
<svg version="1.0" xmlns="http://www.w3.org/2000/svg"
 width="600.000000pt" height="600.000000pt" viewBox="0 0 600.000000 600.000000"
 preserveAspectRatio="xMidYMid meet">
<metadata>
Created by potrace 1.11, written by Peter Selinger 2001-2013
</metadata>
<g transform="translate(0.000000,600.000000) scale(0.100000,-0.100000)"
fill="#000000" stroke="none">
<path d="M0 3000 l0 -3000 3000 0 3000 0 0 3000 0 3000 -3000 0 -3000 0 0
-3000z m1820 360 l0 -1420 1455 0 1455 0 0 -310 0 -310 -1288 0 c-709 0 -1505
-3 -1770 -7 l-482 -6 0 1736 0 1737 315 0 315 0 0 -1420z m1262 660 c11 0 33
-13 49 -29 24 -24 29 -38 29 -76 0 -77 -64 -126 -147 -110 -52 10 -93 54 -93
102 0 50 32 101 67 109 15 3 33 7 38 9 6 2 16 2 23 -1 8 -2 23 -4 34 -4z
m1411 -364 c66 -32 109 -80 139 -156 22 -52 23 -71 26 -412 l3 -358 -105 0
-105 0 -3 333 c-3 325 -4 333 -26 375 -30 56 -83 81 -171 82 -77 0 -135 -24
-181 -76 l-30 -35 0 -339 0 -340 -105 0 -105 0 0 475 0 475 94 0 94 0 6 -31
c3 -17 6 -48 6 -67 l0 -36 43 40 c87 83 148 105 273 101 74 -2 100 -8 147 -31z
m-1343 -371 l0 -385 145 0 145 0 0 -85 0 -85 -400 0 -400 0 0 85 0 85 150 0
150 0 -2 298 -3 297 -147 3 -148 3 0 84 0 85 255 0 255 0 0 -385z"/>
</g>
</svg>
